<mxfile>
    <diagram id="R2lEEEUBdFMjLlhIrx00" name="Page-1">
        <mxGraphModel dx="785" dy="451" grid="1" gridSize="10" guides="1" tooltips="1" connect="1" arrows="1" fold="1" page="1" pageScale="1" pageWidth="850" pageHeight="1100" background="#F4F1DE" math="0" shadow="0" extFonts="Permanent Marker^https://fonts.googleapis.com/css?family=Permanent+Marker">
            <root>
                <mxCell id="0"/>
                <mxCell id="1" parent="0"/>
                <mxCell id="-FKGB9jqLkH2_hyTQaql-25" style="edgeStyle=orthogonalEdgeStyle;orthogonalLoop=1;jettySize=auto;html=1;exitX=0;exitY=0.25;exitDx=0;exitDy=0;startFill=1;endArrow=oval;endFill=1;fontSize=11;labelBackgroundColor=#F4F1DE;strokeColor=#E07A5F;fontColor=#393C56;" parent="1" source="-FKGB9jqLkH2_hyTQaql-4" target="-FKGB9jqLkH2_hyTQaql-23" edge="1">
                    <mxGeometry relative="1" as="geometry"/>
                </mxCell>
                <mxCell id="-FKGB9jqLkH2_hyTQaql-29" style="edgeStyle=orthogonalEdgeStyle;orthogonalLoop=1;jettySize=auto;html=1;exitX=0.5;exitY=0;exitDx=0;exitDy=0;startFill=1;endArrow=oval;endFill=0;fontSize=11;entryX=0.5;entryY=0.995;entryDx=0;entryDy=0;entryPerimeter=0;labelBackgroundColor=#F4F1DE;strokeColor=#E07A5F;fontColor=#393C56;" parent="1" source="-FKGB9jqLkH2_hyTQaql-4" target="-FKGB9jqLkH2_hyTQaql-28" edge="1">
                    <mxGeometry relative="1" as="geometry">
                        <mxPoint x="174" y="60" as="targetPoint"/>
                    </mxGeometry>
                </mxCell>
                <mxCell id="-FKGB9jqLkH2_hyTQaql-31" style="edgeStyle=orthogonalEdgeStyle;orthogonalLoop=1;jettySize=auto;html=1;exitX=0.75;exitY=0;exitDx=0;exitDy=0;entryX=0.4;entryY=1;entryDx=0;entryDy=0;entryPerimeter=0;startFill=1;endArrow=oval;endFill=0;fontSize=11;labelBackgroundColor=#F4F1DE;strokeColor=#E07A5F;fontColor=#393C56;" parent="1" source="-FKGB9jqLkH2_hyTQaql-4" target="-FKGB9jqLkH2_hyTQaql-30" edge="1">
                    <mxGeometry relative="1" as="geometry"/>
                </mxCell>
                <mxCell id="-FKGB9jqLkH2_hyTQaql-32" style="edgeStyle=orthogonalEdgeStyle;orthogonalLoop=1;jettySize=auto;html=1;exitX=0.25;exitY=0;exitDx=0;exitDy=0;entryX=0.5;entryY=1;entryDx=0;entryDy=0;entryPerimeter=0;startFill=1;endArrow=oval;endFill=0;fontSize=11;labelBackgroundColor=#F4F1DE;strokeColor=#E07A5F;fontColor=#393C56;" parent="1" source="-FKGB9jqLkH2_hyTQaql-4" target="-FKGB9jqLkH2_hyTQaql-26" edge="1">
                    <mxGeometry relative="1" as="geometry"/>
                </mxCell>
                <mxCell id="-FKGB9jqLkH2_hyTQaql-34" style="edgeStyle=orthogonalEdgeStyle;orthogonalLoop=1;jettySize=auto;html=1;exitX=-0.017;exitY=0.643;exitDx=0;exitDy=0;startFill=1;endArrow=oval;endFill=0;fontSize=11;exitPerimeter=0;labelBackgroundColor=#F4F1DE;strokeColor=#E07A5F;fontColor=#393C56;" parent="1" source="-FKGB9jqLkH2_hyTQaql-4" target="-FKGB9jqLkH2_hyTQaql-33" edge="1">
                    <mxGeometry relative="1" as="geometry"/>
                </mxCell>
                <mxCell id="-FKGB9jqLkH2_hyTQaql-4" value="Article" style="whiteSpace=wrap;html=1;align=center;fillColor=#F2CC8F;strokeColor=#E07A5F;fontColor=#393C56;" parent="1" vertex="1">
                    <mxGeometry x="120" y="120" width="100" height="40" as="geometry"/>
                </mxCell>
                <mxCell id="-FKGB9jqLkH2_hyTQaql-23" value="id" style="text;strokeColor=none;fillColor=none;spacingLeft=4;spacingRight=4;overflow=hidden;rotatable=0;points=[[0,0.5],[1,0.5]];portConstraint=eastwest;fontSize=12;align=center;html=0;verticalAlign=middle;fontColor=#393C56;" parent="1" vertex="1">
                    <mxGeometry x="40" y="100" width="40" height="20" as="geometry"/>
                </mxCell>
                <mxCell id="-FKGB9jqLkH2_hyTQaql-26" value="name" style="text;strokeColor=none;fillColor=none;spacingLeft=4;spacingRight=4;overflow=hidden;rotatable=0;points=[[0,0.5],[1,0.5]];portConstraint=eastwest;fontSize=12;html=0;fontColor=#393C56;" parent="1" vertex="1">
                    <mxGeometry x="120" y="60" width="40" height="30" as="geometry"/>
                </mxCell>
                <mxCell id="-FKGB9jqLkH2_hyTQaql-28" value="description" style="text;strokeColor=none;fillColor=none;spacingLeft=4;spacingRight=4;overflow=hidden;rotatable=0;points=[[0,0.5],[1,0.5]];portConstraint=eastwest;fontSize=12;html=0;fontColor=#393C56;" parent="1" vertex="1">
                    <mxGeometry x="135" y="20" width="70" height="30" as="geometry"/>
                </mxCell>
                <mxCell id="-FKGB9jqLkH2_hyTQaql-30" value="image" style="text;strokeColor=none;fillColor=none;spacingLeft=4;spacingRight=4;overflow=hidden;rotatable=0;points=[[0,0.5],[1,0.5]];portConstraint=eastwest;fontSize=12;html=0;fontColor=#393C56;" parent="1" vertex="1">
                    <mxGeometry x="180" y="60" width="50" height="30" as="geometry"/>
                </mxCell>
                <mxCell id="-FKGB9jqLkH2_hyTQaql-33" value="category" style="text;strokeColor=none;fillColor=none;spacingLeft=4;spacingRight=4;overflow=hidden;rotatable=0;points=[[0,0.5],[1,0.5]];portConstraint=eastwest;fontSize=12;html=0;fontColor=#393C56;" parent="1" vertex="1">
                    <mxGeometry x="10" y="130" width="70" height="30" as="geometry"/>
                </mxCell>
                <mxCell id="-FKGB9jqLkH2_hyTQaql-40" style="edgeStyle=orthogonalEdgeStyle;orthogonalLoop=1;jettySize=auto;html=1;exitX=0.25;exitY=0;exitDx=0;exitDy=0;startFill=1;endArrow=oval;endFill=1;fontSize=11;labelBackgroundColor=#F4F1DE;strokeColor=#E07A5F;fontColor=#393C56;" parent="1" source="-FKGB9jqLkH2_hyTQaql-35" target="-FKGB9jqLkH2_hyTQaql-36" edge="1">
                    <mxGeometry relative="1" as="geometry"/>
                </mxCell>
                <mxCell id="-FKGB9jqLkH2_hyTQaql-41" style="edgeStyle=orthogonalEdgeStyle;orthogonalLoop=1;jettySize=auto;html=1;exitX=0.5;exitY=0;exitDx=0;exitDy=0;entryX=0.501;entryY=1.007;entryDx=0;entryDy=0;entryPerimeter=0;startFill=1;endArrow=oval;endFill=0;fontSize=11;labelBackgroundColor=#F4F1DE;strokeColor=#E07A5F;fontColor=#393C56;" parent="1" source="-FKGB9jqLkH2_hyTQaql-35" target="-FKGB9jqLkH2_hyTQaql-37" edge="1">
                    <mxGeometry relative="1" as="geometry"/>
                </mxCell>
                <mxCell id="-FKGB9jqLkH2_hyTQaql-42" style="edgeStyle=orthogonalEdgeStyle;orthogonalLoop=1;jettySize=auto;html=1;exitX=0.75;exitY=0;exitDx=0;exitDy=0;entryX=0.459;entryY=1.007;entryDx=0;entryDy=0;entryPerimeter=0;startFill=1;endArrow=oval;endFill=0;fontSize=11;labelBackgroundColor=#F4F1DE;strokeColor=#E07A5F;fontColor=#393C56;" parent="1" source="-FKGB9jqLkH2_hyTQaql-35" target="-FKGB9jqLkH2_hyTQaql-38" edge="1">
                    <mxGeometry relative="1" as="geometry"/>
                </mxCell>
                <mxCell id="-FKGB9jqLkH2_hyTQaql-44" style="edgeStyle=orthogonalEdgeStyle;orthogonalLoop=1;jettySize=auto;html=1;exitX=1;exitY=0.5;exitDx=0;exitDy=0;entryX=0;entryY=0.5;entryDx=0;entryDy=0;startFill=1;endArrow=oval;endFill=0;fontSize=11;labelBackgroundColor=#F4F1DE;strokeColor=#E07A5F;fontColor=#393C56;" parent="1" source="-FKGB9jqLkH2_hyTQaql-35" target="-FKGB9jqLkH2_hyTQaql-39" edge="1">
                    <mxGeometry relative="1" as="geometry">
                        <mxPoint x="610" y="65" as="targetPoint"/>
                    </mxGeometry>
                </mxCell>
                <mxCell id="-FKGB9jqLkH2_hyTQaql-35" value="Seller" style="whiteSpace=wrap;html=1;align=center;verticalAlign=middle;fillColor=#F2CC8F;strokeColor=#E07A5F;fontColor=#393C56;" parent="1" vertex="1">
                    <mxGeometry x="460" y="120" width="100" height="40" as="geometry"/>
                </mxCell>
                <mxCell id="-FKGB9jqLkH2_hyTQaql-36" value="id" style="text;strokeColor=none;fillColor=none;spacingLeft=4;spacingRight=4;overflow=hidden;rotatable=0;points=[[0,0.5],[1,0.5]];portConstraint=eastwest;fontSize=12;html=0;fontColor=#393C56;" parent="1" vertex="1">
                    <mxGeometry x="410" y="80" width="30" height="30" as="geometry"/>
                </mxCell>
                <mxCell id="-FKGB9jqLkH2_hyTQaql-37" value="name" style="text;strokeColor=none;fillColor=none;spacingLeft=4;spacingRight=4;overflow=hidden;rotatable=0;points=[[0,0.5],[1,0.5]];portConstraint=eastwest;fontSize=12;html=0;fontColor=#393C56;" parent="1" vertex="1">
                    <mxGeometry x="490" y="40" width="40" height="30" as="geometry"/>
                </mxCell>
                <mxCell id="-FKGB9jqLkH2_hyTQaql-38" value="rating" style="text;strokeColor=none;fillColor=none;spacingLeft=4;spacingRight=4;overflow=hidden;rotatable=0;points=[[0,0.5],[1,0.5]];portConstraint=eastwest;fontSize=12;html=0;fontColor=#393C56;" parent="1" vertex="1">
                    <mxGeometry x="540" y="20" width="40" height="30" as="geometry"/>
                </mxCell>
                <mxCell id="-FKGB9jqLkH2_hyTQaql-39" value="free_shipping_threshold" style="text;strokeColor=none;fillColor=none;spacingLeft=4;spacingRight=4;overflow=hidden;rotatable=0;points=[[0,0.5],[1,0.5]];portConstraint=eastwest;fontSize=12;html=0;align=center;fontColor=#393C56;" parent="1" vertex="1">
                    <mxGeometry x="590" y="125" width="150" height="30" as="geometry"/>
                </mxCell>
                <mxCell id="-FKGB9jqLkH2_hyTQaql-50" style="edgeStyle=orthogonalEdgeStyle;orthogonalLoop=1;jettySize=auto;html=1;exitX=0.5;exitY=1;exitDx=0;exitDy=0;startFill=1;endArrow=oval;endFill=0;fontSize=11;entryX=0.508;entryY=0.044;entryDx=0;entryDy=0;entryPerimeter=0;labelBackgroundColor=#F4F1DE;strokeColor=#E07A5F;fontColor=#393C56;" parent="1" source="-FKGB9jqLkH2_hyTQaql-45" target="-FKGB9jqLkH2_hyTQaql-51" edge="1">
                    <mxGeometry relative="1" as="geometry">
                        <mxPoint x="350.0344827586207" y="190" as="targetPoint"/>
                    </mxGeometry>
                </mxCell>
                <mxCell id="-FKGB9jqLkH2_hyTQaql-45" value="Sell" style="shape=rhombus;perimeter=rhombusPerimeter;whiteSpace=wrap;html=1;align=center;strokeColor=#E07A5F;fontColor=#393C56;fillColor=#F2A38F;" parent="1" vertex="1">
                    <mxGeometry x="280" y="110" width="120" height="60" as="geometry"/>
                </mxCell>
                <mxCell id="-FKGB9jqLkH2_hyTQaql-46" value="" style="endArrow=none;html=1;fontSize=11;exitX=0;exitY=0.5;exitDx=0;exitDy=0;entryX=1;entryY=0.5;entryDx=0;entryDy=0;labelBackgroundColor=#F4F1DE;strokeColor=#E07A5F;fontColor=#393C56;" parent="1" source="-FKGB9jqLkH2_hyTQaql-45" target="-FKGB9jqLkH2_hyTQaql-4" edge="1">
                    <mxGeometry relative="1" as="geometry">
                        <mxPoint x="220" y="140" as="sourcePoint"/>
                        <mxPoint x="270" y="190" as="targetPoint"/>
                    </mxGeometry>
                </mxCell>
                <mxCell id="-FKGB9jqLkH2_hyTQaql-47" value="N" style="resizable=0;html=1;align=right;verticalAlign=bottom;spacingLeft=0;fillColor=#F2CC8F;strokeColor=#E07A5F;fontColor=#393C56;" parent="-FKGB9jqLkH2_hyTQaql-46" connectable="0" vertex="1">
                    <mxGeometry x="1" relative="1" as="geometry">
                        <mxPoint x="13" as="offset"/>
                    </mxGeometry>
                </mxCell>
                <mxCell id="-FKGB9jqLkH2_hyTQaql-48" value="" style="endArrow=none;html=1;fontSize=11;exitX=1;exitY=0.5;exitDx=0;exitDy=0;entryX=0;entryY=0.5;entryDx=0;entryDy=0;labelBackgroundColor=#F4F1DE;strokeColor=#E07A5F;fontColor=#393C56;" parent="1" source="-FKGB9jqLkH2_hyTQaql-45" target="-FKGB9jqLkH2_hyTQaql-35" edge="1">
                    <mxGeometry relative="1" as="geometry">
                        <mxPoint x="420" y="170" as="sourcePoint"/>
                        <mxPoint x="580" y="170" as="targetPoint"/>
                    </mxGeometry>
                </mxCell>
                <mxCell id="-FKGB9jqLkH2_hyTQaql-49" value="N" style="resizable=0;html=1;align=right;verticalAlign=bottom;fillColor=#F2CC8F;strokeColor=#E07A5F;fontColor=#393C56;" parent="-FKGB9jqLkH2_hyTQaql-48" connectable="0" vertex="1">
                    <mxGeometry x="1" relative="1" as="geometry">
                        <mxPoint x="-3" as="offset"/>
                    </mxGeometry>
                </mxCell>
                <mxCell id="-FKGB9jqLkH2_hyTQaql-51" value="price" style="text;strokeColor=none;fillColor=none;spacingLeft=4;spacingRight=4;overflow=hidden;rotatable=0;points=[[0,0.5],[1,0.5]];portConstraint=eastwest;fontSize=12;align=center;html=0;fontColor=#393C56;" parent="1" vertex="1">
                    <mxGeometry x="320" y="195" width="40" height="30" as="geometry"/>
                </mxCell>
                <mxCell id="-FKGB9jqLkH2_hyTQaql-56" style="edgeStyle=orthogonalEdgeStyle;orthogonalLoop=1;jettySize=auto;html=1;exitX=0;exitY=0.25;exitDx=0;exitDy=0;startFill=1;endArrow=oval;endFill=1;fontSize=11;entryX=1;entryY=0.5;entryDx=0;entryDy=0;labelBackgroundColor=#F4F1DE;strokeColor=#E07A5F;fontColor=#393C56;" parent="1" source="-FKGB9jqLkH2_hyTQaql-52" target="-FKGB9jqLkH2_hyTQaql-53" edge="1">
                    <mxGeometry relative="1" as="geometry">
                        <mxPoint x="95" y="449.8620689655173" as="targetPoint"/>
                    </mxGeometry>
                </mxCell>
                <mxCell id="-FKGB9jqLkH2_hyTQaql-57" style="edgeStyle=orthogonalEdgeStyle;orthogonalLoop=1;jettySize=auto;html=1;exitX=0;exitY=0.75;exitDx=0;exitDy=0;entryX=1;entryY=0.5;entryDx=0;entryDy=0;startFill=1;endArrow=oval;endFill=0;fontSize=11;labelBackgroundColor=#F4F1DE;strokeColor=#E07A5F;fontColor=#393C56;" parent="1" source="-FKGB9jqLkH2_hyTQaql-52" target="-FKGB9jqLkH2_hyTQaql-54" edge="1">
                    <mxGeometry relative="1" as="geometry">
                        <mxPoint x="75" y="485" as="targetPoint"/>
                    </mxGeometry>
                </mxCell>
                <mxCell id="-FKGB9jqLkH2_hyTQaql-58" style="edgeStyle=orthogonalEdgeStyle;orthogonalLoop=1;jettySize=auto;html=1;exitX=0.25;exitY=1;exitDx=0;exitDy=0;startFill=1;endArrow=oval;endFill=0;fontSize=11;entryX=0.48;entryY=0.018;entryDx=0;entryDy=0;entryPerimeter=0;labelBackgroundColor=#F4F1DE;strokeColor=#E07A5F;fontColor=#393C56;" parent="1" source="-FKGB9jqLkH2_hyTQaql-52" target="-FKGB9jqLkH2_hyTQaql-55" edge="1">
                    <mxGeometry relative="1" as="geometry">
                        <mxPoint x="133" y="546" as="targetPoint"/>
                    </mxGeometry>
                </mxCell>
                <mxCell id="-FKGB9jqLkH2_hyTQaql-52" value="Order" style="whiteSpace=wrap;html=1;align=center;fillColor=#F2CC8F;strokeColor=#E07A5F;fontColor=#393C56;" parent="1" vertex="1">
                    <mxGeometry x="120" y="440" width="100" height="40" as="geometry"/>
                </mxCell>
                <mxCell id="-FKGB9jqLkH2_hyTQaql-53" value="id" style="text;strokeColor=none;fillColor=none;spacingLeft=4;spacingRight=4;overflow=hidden;rotatable=0;points=[[0,0.5],[1,0.5]];portConstraint=eastwest;fontSize=12;align=center;html=0;verticalAlign=middle;fontColor=#393C56;" parent="1" vertex="1">
                    <mxGeometry x="60" y="440" width="40" height="20" as="geometry"/>
                </mxCell>
                <mxCell id="-FKGB9jqLkH2_hyTQaql-54" value="total" style="text;strokeColor=none;fillColor=none;spacingLeft=4;spacingRight=4;overflow=hidden;rotatable=0;points=[[0,0.5],[1,0.5]];portConstraint=eastwest;fontSize=12;align=center;html=0;verticalAlign=middle;fontColor=#393C56;" parent="1" vertex="1">
                    <mxGeometry x="10" y="480" width="40" height="30" as="geometry"/>
                </mxCell>
                <mxCell id="-FKGB9jqLkH2_hyTQaql-55" value="shipment_date&#10;" style="text;strokeColor=none;fillColor=none;spacingLeft=4;spacingRight=4;overflow=hidden;rotatable=0;points=[[0,0.5],[1,0.5]];portConstraint=eastwest;fontSize=12;align=center;html=0;fontColor=#393C56;" parent="1" vertex="1">
                    <mxGeometry x="60" y="550" width="100" height="30" as="geometry"/>
                </mxCell>
                <mxCell id="-FKGB9jqLkH2_hyTQaql-98" style="edgeStyle=orthogonalEdgeStyle;orthogonalLoop=1;jettySize=auto;html=1;entryX=1;entryY=0.5;entryDx=0;entryDy=0;startFill=1;endArrow=oval;endFill=0;fontSize=11;labelBackgroundColor=#F4F1DE;strokeColor=#E07A5F;fontColor=#393C56;" parent="1" source="-FKGB9jqLkH2_hyTQaql-59" target="-FKGB9jqLkH2_hyTQaql-68" edge="1">
                    <mxGeometry relative="1" as="geometry"/>
                </mxCell>
                <mxCell id="-FKGB9jqLkH2_hyTQaql-59" value="Contains" style="shape=rhombus;perimeter=rhombusPerimeter;whiteSpace=wrap;html=1;align=center;strokeColor=#E07A5F;fontColor=#393C56;fillColor=#F2A38F;" parent="1" vertex="1">
                    <mxGeometry x="110" y="270" width="120" height="60" as="geometry"/>
                </mxCell>
                <mxCell id="-FKGB9jqLkH2_hyTQaql-63" value="" style="endArrow=none;html=1;fontSize=11;exitX=0.5;exitY=1;exitDx=0;exitDy=0;entryX=0.5;entryY=0;entryDx=0;entryDy=0;labelBackgroundColor=#F4F1DE;strokeColor=#E07A5F;fontColor=#393C56;" parent="1" source="-FKGB9jqLkH2_hyTQaql-59" target="-FKGB9jqLkH2_hyTQaql-52" edge="1">
                    <mxGeometry relative="1" as="geometry">
                        <mxPoint x="250" y="280" as="sourcePoint"/>
                        <mxPoint x="410" y="280" as="targetPoint"/>
                    </mxGeometry>
                </mxCell>
                <mxCell id="-FKGB9jqLkH2_hyTQaql-64" value="N" style="resizable=0;html=1;align=right;verticalAlign=bottom;fillColor=#F2CC8F;strokeColor=#E07A5F;fontColor=#393C56;" parent="-FKGB9jqLkH2_hyTQaql-63" connectable="0" vertex="1">
                    <mxGeometry x="1" relative="1" as="geometry">
                        <mxPoint x="12" y="-0.34" as="offset"/>
                    </mxGeometry>
                </mxCell>
                <mxCell id="-FKGB9jqLkH2_hyTQaql-65" value="" style="endArrow=none;html=1;fontSize=11;exitX=0.5;exitY=0;exitDx=0;exitDy=0;labelBackgroundColor=#F4F1DE;strokeColor=#E07A5F;fontColor=#393C56;" parent="1" source="-FKGB9jqLkH2_hyTQaql-59" target="-FKGB9jqLkH2_hyTQaql-4" edge="1">
                    <mxGeometry relative="1" as="geometry">
                        <mxPoint x="280" y="250" as="sourcePoint"/>
                        <mxPoint x="440" y="250" as="targetPoint"/>
                    </mxGeometry>
                </mxCell>
                <mxCell id="-FKGB9jqLkH2_hyTQaql-66" value="N" style="resizable=0;html=1;align=right;verticalAlign=bottom;fillColor=#F2CC8F;strokeColor=#E07A5F;fontColor=#393C56;" parent="-FKGB9jqLkH2_hyTQaql-65" connectable="0" vertex="1">
                    <mxGeometry x="1" relative="1" as="geometry">
                        <mxPoint x="12" y="20.34" as="offset"/>
                    </mxGeometry>
                </mxCell>
                <mxCell id="-FKGB9jqLkH2_hyTQaql-68" value="count&#10;" style="text;strokeColor=none;fillColor=none;spacingLeft=4;spacingRight=4;overflow=hidden;rotatable=0;points=[[0,0.5],[1,0.5]];portConstraint=eastwest;fontSize=12;align=center;html=0;fontColor=#393C56;" parent="1" vertex="1">
                    <mxGeometry x="35" y="285" width="50" height="30" as="geometry"/>
                </mxCell>
                <mxCell id="-FKGB9jqLkH2_hyTQaql-76" style="edgeStyle=orthogonalEdgeStyle;orthogonalLoop=1;jettySize=auto;html=1;exitX=0.5;exitY=0;exitDx=0;exitDy=0;entryX=0.51;entryY=1.033;entryDx=0;entryDy=0;entryPerimeter=0;startFill=1;endArrow=oval;endFill=0;fontSize=11;labelBackgroundColor=#F4F1DE;strokeColor=#E07A5F;fontColor=#393C56;" parent="1" source="-FKGB9jqLkH2_hyTQaql-69" target="-FKGB9jqLkH2_hyTQaql-71" edge="1">
                    <mxGeometry relative="1" as="geometry">
                        <mxPoint x="510" y="405" as="targetPoint"/>
                    </mxGeometry>
                </mxCell>
                <mxCell id="-FKGB9jqLkH2_hyTQaql-77" style="edgeStyle=orthogonalEdgeStyle;orthogonalLoop=1;jettySize=auto;html=1;exitX=0.75;exitY=0;exitDx=0;exitDy=0;entryX=0.5;entryY=1;entryDx=0;entryDy=0;entryPerimeter=0;startFill=1;endArrow=oval;endFill=0;fontSize=11;labelBackgroundColor=#F4F1DE;strokeColor=#E07A5F;fontColor=#393C56;" parent="1" source="-FKGB9jqLkH2_hyTQaql-69" target="-FKGB9jqLkH2_hyTQaql-72" edge="1">
                    <mxGeometry relative="1" as="geometry"/>
                </mxCell>
                <mxCell id="-FKGB9jqLkH2_hyTQaql-78" style="edgeStyle=orthogonalEdgeStyle;orthogonalLoop=1;jettySize=auto;html=1;exitX=1;exitY=0.25;exitDx=0;exitDy=0;entryX=0;entryY=0.5;entryDx=0;entryDy=0;startFill=1;endArrow=oval;endFill=0;fontSize=11;labelBackgroundColor=#F4F1DE;strokeColor=#E07A5F;fontColor=#393C56;" parent="1" source="-FKGB9jqLkH2_hyTQaql-69" target="-FKGB9jqLkH2_hyTQaql-73" edge="1">
                    <mxGeometry relative="1" as="geometry"/>
                </mxCell>
                <mxCell id="-FKGB9jqLkH2_hyTQaql-79" style="edgeStyle=orthogonalEdgeStyle;orthogonalLoop=1;jettySize=auto;html=1;exitX=1;exitY=0.75;exitDx=0;exitDy=0;entryX=0;entryY=0.5;entryDx=0;entryDy=0;startFill=1;endArrow=oval;endFill=0;fontSize=11;labelBackgroundColor=#F4F1DE;strokeColor=#E07A5F;fontColor=#393C56;" parent="1" source="-FKGB9jqLkH2_hyTQaql-69" target="-FKGB9jqLkH2_hyTQaql-74" edge="1">
                    <mxGeometry relative="1" as="geometry">
                        <mxPoint x="620" y="485" as="targetPoint"/>
                    </mxGeometry>
                </mxCell>
                <mxCell id="-FKGB9jqLkH2_hyTQaql-80" style="edgeStyle=orthogonalEdgeStyle;orthogonalLoop=1;jettySize=auto;html=1;exitX=0.75;exitY=1;exitDx=0;exitDy=0;startFill=1;endArrow=oval;endFill=0;fontSize=11;entryX=0.506;entryY=-0.028;entryDx=0;entryDy=0;entryPerimeter=0;labelBackgroundColor=#F4F1DE;strokeColor=#E07A5F;fontColor=#393C56;" parent="1" source="-FKGB9jqLkH2_hyTQaql-69" target="-FKGB9jqLkH2_hyTQaql-75" edge="1">
                    <mxGeometry relative="1" as="geometry">
                        <mxPoint x="541" y="560" as="targetPoint"/>
                    </mxGeometry>
                </mxCell>
                <mxCell id="-FKGB9jqLkH2_hyTQaql-81" style="edgeStyle=orthogonalEdgeStyle;orthogonalLoop=1;jettySize=auto;html=1;exitX=0.25;exitY=0;exitDx=0;exitDy=0;entryX=0.492;entryY=1.167;entryDx=0;entryDy=0;entryPerimeter=0;startFill=1;endArrow=oval;endFill=1;fontSize=11;labelBackgroundColor=#F4F1DE;strokeColor=#E07A5F;fontColor=#393C56;" parent="1" source="-FKGB9jqLkH2_hyTQaql-69" target="-FKGB9jqLkH2_hyTQaql-70" edge="1">
                    <mxGeometry relative="1" as="geometry">
                        <mxPoint x="449.68000000000006" y="404.3399999999999" as="targetPoint"/>
                    </mxGeometry>
                </mxCell>
                <mxCell id="-FKGB9jqLkH2_hyTQaql-69" value="User" style="whiteSpace=wrap;html=1;align=center;fillColor=#F2CC8F;strokeColor=#E07A5F;fontColor=#393C56;" parent="1" vertex="1">
                    <mxGeometry x="460" y="440" width="100" height="40" as="geometry"/>
                </mxCell>
                <mxCell id="-FKGB9jqLkH2_hyTQaql-70" value="id" style="text;strokeColor=none;fillColor=none;spacingLeft=4;spacingRight=4;overflow=hidden;rotatable=0;points=[[0,0.5],[1,0.5]];portConstraint=eastwest;fontSize=12;align=center;html=0;fontColor=#393C56;" parent="1" vertex="1">
                    <mxGeometry x="425" y="370" width="40" height="30" as="geometry"/>
                </mxCell>
                <mxCell id="-FKGB9jqLkH2_hyTQaql-71" value="name" style="text;strokeColor=none;fillColor=none;spacingLeft=4;spacingRight=4;overflow=hidden;rotatable=0;points=[[0,0.5],[1,0.5]];portConstraint=eastwest;fontSize=12;align=center;html=0;fontColor=#393C56;" parent="1" vertex="1">
                    <mxGeometry x="490" y="350" width="40" height="30" as="geometry"/>
                </mxCell>
                <mxCell id="-FKGB9jqLkH2_hyTQaql-72" value="surname" style="text;strokeColor=none;fillColor=none;spacingLeft=4;spacingRight=4;overflow=hidden;rotatable=0;points=[[0,0.5],[1,0.5]];portConstraint=eastwest;fontSize=12;align=center;html=0;fontColor=#393C56;" parent="1" vertex="1">
                    <mxGeometry x="540" y="370" width="60" height="30" as="geometry"/>
                </mxCell>
                <mxCell id="-FKGB9jqLkH2_hyTQaql-73" value="email" style="text;strokeColor=none;fillColor=none;spacingLeft=4;spacingRight=4;overflow=hidden;rotatable=0;points=[[0,0.5],[1,0.5]];portConstraint=eastwest;fontSize=12;align=center;html=0;fontColor=#393C56;" parent="1" vertex="1">
                    <mxGeometry x="620" y="410" width="50" height="30" as="geometry"/>
                </mxCell>
                <mxCell id="-FKGB9jqLkH2_hyTQaql-74" value="password" style="text;strokeColor=none;fillColor=none;spacingLeft=4;spacingRight=4;overflow=hidden;rotatable=0;points=[[0,0.5],[1,0.5]];portConstraint=eastwest;fontSize=12;align=center;html=0;fontColor=#393C56;" parent="1" vertex="1">
                    <mxGeometry x="610" y="470" width="70" height="30" as="geometry"/>
                </mxCell>
                <mxCell id="-FKGB9jqLkH2_hyTQaql-75" value="address" style="text;strokeColor=none;fillColor=none;spacingLeft=4;spacingRight=4;overflow=hidden;rotatable=0;points=[[0,0.5],[1,0.5]];portConstraint=eastwest;fontSize=12;align=center;html=0;fontColor=#393C56;" parent="1" vertex="1">
                    <mxGeometry x="500" y="520" width="70" height="30" as="geometry"/>
                </mxCell>
                <mxCell id="-FKGB9jqLkH2_hyTQaql-82" value="Compile" style="shape=rhombus;perimeter=rhombusPerimeter;whiteSpace=wrap;html=1;align=center;strokeColor=#E07A5F;fontColor=#393C56;fillColor=#F2A38F;" parent="1" vertex="1">
                    <mxGeometry x="280" y="430" width="120" height="60" as="geometry"/>
                </mxCell>
                <mxCell id="-FKGB9jqLkH2_hyTQaql-83" value="" style="endArrow=none;html=1;fontSize=11;entryX=0;entryY=0.5;entryDx=0;entryDy=0;exitX=1;exitY=0.5;exitDx=0;exitDy=0;labelBackgroundColor=#F4F1DE;strokeColor=#E07A5F;fontColor=#393C56;" parent="1" source="-FKGB9jqLkH2_hyTQaql-82" target="-FKGB9jqLkH2_hyTQaql-69" edge="1">
                    <mxGeometry relative="1" as="geometry">
                        <mxPoint x="390" y="480" as="sourcePoint"/>
                        <mxPoint x="550" y="480" as="targetPoint"/>
                    </mxGeometry>
                </mxCell>
                <mxCell id="-FKGB9jqLkH2_hyTQaql-84" value="N" style="resizable=0;html=1;align=right;verticalAlign=bottom;rotation=0;fillColor=#F2CC8F;strokeColor=#E07A5F;fontColor=#393C56;" parent="-FKGB9jqLkH2_hyTQaql-83" connectable="0" vertex="1">
                    <mxGeometry x="1" relative="1" as="geometry">
                        <mxPoint x="-2" as="offset"/>
                    </mxGeometry>
                </mxCell>
                <mxCell id="-FKGB9jqLkH2_hyTQaql-85" value="" style="endArrow=none;html=1;fontSize=11;entryX=1;entryY=0.5;entryDx=0;entryDy=0;exitX=0;exitY=0.5;exitDx=0;exitDy=0;labelBackgroundColor=#F4F1DE;strokeColor=#E07A5F;fontColor=#393C56;" parent="1" source="-FKGB9jqLkH2_hyTQaql-82" target="-FKGB9jqLkH2_hyTQaql-52" edge="1">
                    <mxGeometry relative="1" as="geometry">
                        <mxPoint x="250" y="530" as="sourcePoint"/>
                        <mxPoint x="410" y="530" as="targetPoint"/>
                    </mxGeometry>
                </mxCell>
                <mxCell id="-FKGB9jqLkH2_hyTQaql-86" value="1" style="resizable=0;html=1;align=right;verticalAlign=bottom;fillColor=#F2CC8F;strokeColor=#E07A5F;fontColor=#393C56;" parent="-FKGB9jqLkH2_hyTQaql-85" connectable="0" vertex="1">
                    <mxGeometry x="1" relative="1" as="geometry">
                        <mxPoint x="10" as="offset"/>
                    </mxGeometry>
                </mxCell>
                <mxCell id="-FKGB9jqLkH2_hyTQaql-93" style="edgeStyle=orthogonalEdgeStyle;orthogonalLoop=1;jettySize=auto;html=1;exitX=0.25;exitY=0;exitDx=0;exitDy=0;entryX=0.544;entryY=0.995;entryDx=0;entryDy=0;startFill=1;endArrow=oval;endFill=1;fontSize=11;entryPerimeter=0;labelBackgroundColor=#F4F1DE;strokeColor=#E07A5F;fontColor=#393C56;" parent="1" source="-FKGB9jqLkH2_hyTQaql-87" target="-FKGB9jqLkH2_hyTQaql-91" edge="1">
                    <mxGeometry relative="1" as="geometry"/>
                </mxCell>
                <mxCell id="-FKGB9jqLkH2_hyTQaql-94" style="edgeStyle=orthogonalEdgeStyle;orthogonalLoop=1;jettySize=auto;html=1;exitX=0.75;exitY=0;exitDx=0;exitDy=0;entryX=0.513;entryY=1.03;entryDx=0;entryDy=0;entryPerimeter=0;startFill=1;endArrow=oval;endFill=0;fontSize=11;labelBackgroundColor=#F4F1DE;strokeColor=#E07A5F;fontColor=#393C56;" parent="1" source="-FKGB9jqLkH2_hyTQaql-87" target="-FKGB9jqLkH2_hyTQaql-88" edge="1">
                    <mxGeometry relative="1" as="geometry"/>
                </mxCell>
                <mxCell id="-FKGB9jqLkH2_hyTQaql-95" style="edgeStyle=orthogonalEdgeStyle;orthogonalLoop=1;jettySize=auto;html=1;exitX=0.75;exitY=1;exitDx=0;exitDy=0;startFill=1;endArrow=oval;endFill=0;fontSize=11;entryX=0.513;entryY=0;entryDx=0;entryDy=0;entryPerimeter=0;labelBackgroundColor=#F4F1DE;strokeColor=#E07A5F;fontColor=#393C56;" parent="1" source="-FKGB9jqLkH2_hyTQaql-87" target="-FKGB9jqLkH2_hyTQaql-89" edge="1">
                    <mxGeometry relative="1" as="geometry">
                        <mxPoint x="791" y="315" as="targetPoint"/>
                    </mxGeometry>
                </mxCell>
                <mxCell id="-FKGB9jqLkH2_hyTQaql-96" style="edgeStyle=orthogonalEdgeStyle;orthogonalLoop=1;jettySize=auto;html=1;exitX=0.25;exitY=1;exitDx=0;exitDy=0;entryX=0.512;entryY=0.011;entryDx=0;entryDy=0;entryPerimeter=0;startFill=1;endArrow=oval;endFill=0;fontSize=11;labelBackgroundColor=#F4F1DE;strokeColor=#E07A5F;fontColor=#393C56;" parent="1" source="-FKGB9jqLkH2_hyTQaql-87" target="-FKGB9jqLkH2_hyTQaql-92" edge="1">
                    <mxGeometry relative="1" as="geometry">
                        <mxPoint x="709.3599999999999" y="330.53999999999996" as="targetPoint"/>
                    </mxGeometry>
                </mxCell>
                <mxCell id="-FKGB9jqLkH2_hyTQaql-87" value="Shipment Range" style="whiteSpace=wrap;html=1;align=center;fillColor=#F2CC8F;strokeColor=#E07A5F;fontColor=#393C56;" parent="1" vertex="1">
                    <mxGeometry x="710" y="250" width="100" height="40" as="geometry"/>
                </mxCell>
                <mxCell id="-FKGB9jqLkH2_hyTQaql-88" value="min_articles" style="text;strokeColor=none;fillColor=none;spacingLeft=4;spacingRight=4;overflow=hidden;rotatable=0;points=[[0,0.5],[1,0.5]];portConstraint=eastwest;fontSize=12;align=center;html=0;fontColor=#393C56;" parent="1" vertex="1">
                    <mxGeometry x="750" y="190" width="80" height="30" as="geometry"/>
                </mxCell>
                <mxCell id="-FKGB9jqLkH2_hyTQaql-89" value="max_articles" style="text;strokeColor=none;fillColor=none;spacingLeft=4;spacingRight=4;overflow=hidden;rotatable=0;points=[[0,0.5],[1,0.5]];portConstraint=eastwest;fontSize=12;align=center;html=0;fontColor=#393C56;" parent="1" vertex="1">
                    <mxGeometry x="750" y="320" width="80" height="30" as="geometry"/>
                </mxCell>
                <mxCell id="-FKGB9jqLkH2_hyTQaql-91" value="id" style="text;strokeColor=none;fillColor=none;spacingLeft=4;spacingRight=4;overflow=hidden;rotatable=0;points=[[0,0.5],[1,0.5]];portConstraint=eastwest;fontSize=12;align=center;html=0;fontColor=#393C56;" parent="1" vertex="1">
                    <mxGeometry x="710" y="190" width="40" height="30" as="geometry"/>
                </mxCell>
                <mxCell id="-FKGB9jqLkH2_hyTQaql-92" value="price" style="text;strokeColor=none;fillColor=none;spacingLeft=4;spacingRight=4;overflow=hidden;rotatable=0;points=[[0,0.5],[1,0.5]];portConstraint=eastwest;fontSize=12;align=center;html=0;fontColor=#393C56;" parent="1" vertex="1">
                    <mxGeometry x="690" y="330" width="40" height="30" as="geometry"/>
                </mxCell>
                <mxCell id="-FKGB9jqLkH2_hyTQaql-97" value="Define" style="shape=rhombus;perimeter=rhombusPerimeter;whiteSpace=wrap;html=1;align=center;strokeColor=#E07A5F;fontColor=#393C56;fillColor=#F2A38F;" parent="1" vertex="1">
                    <mxGeometry x="530" y="240" width="120" height="60" as="geometry"/>
                </mxCell>
                <mxCell id="-FKGB9jqLkH2_hyTQaql-101" value="" style="endArrow=none;html=1;fontSize=11;entryX=0.5;entryY=1;entryDx=0;entryDy=0;labelBackgroundColor=#F4F1DE;strokeColor=#E07A5F;fontColor=#393C56;" parent="1" target="-FKGB9jqLkH2_hyTQaql-35" edge="1">
                    <mxGeometry relative="1" as="geometry">
                        <mxPoint x="510" y="270" as="sourcePoint"/>
                        <mxPoint x="590" y="210" as="targetPoint"/>
                    </mxGeometry>
                </mxCell>
                <mxCell id="-FKGB9jqLkH2_hyTQaql-102" value="1" style="resizable=0;html=1;align=right;verticalAlign=bottom;fillColor=#F2CC8F;strokeColor=#E07A5F;fontColor=#393C56;" parent="-FKGB9jqLkH2_hyTQaql-101" connectable="0" vertex="1">
                    <mxGeometry x="1" relative="1" as="geometry">
                        <mxPoint x="-2" y="17" as="offset"/>
                    </mxGeometry>
                </mxCell>
                <mxCell id="-FKGB9jqLkH2_hyTQaql-103" value="" style="endArrow=none;html=1;fontSize=11;entryX=0;entryY=0.5;entryDx=0;entryDy=0;labelBackgroundColor=#F4F1DE;strokeColor=#E07A5F;fontColor=#393C56;" parent="1" target="-FKGB9jqLkH2_hyTQaql-97" edge="1">
                    <mxGeometry relative="1" as="geometry">
                        <mxPoint x="510" y="270" as="sourcePoint"/>
                        <mxPoint x="560" y="290" as="targetPoint"/>
                    </mxGeometry>
                </mxCell>
                <mxCell id="-FKGB9jqLkH2_hyTQaql-104" value="" style="endArrow=none;html=1;fontSize=11;entryX=0;entryY=0.5;entryDx=0;entryDy=0;exitX=1;exitY=0.5;exitDx=0;exitDy=0;labelBackgroundColor=#F4F1DE;strokeColor=#E07A5F;fontColor=#393C56;" parent="1" source="-FKGB9jqLkH2_hyTQaql-97" target="-FKGB9jqLkH2_hyTQaql-87" edge="1">
                    <mxGeometry relative="1" as="geometry">
                        <mxPoint x="510" y="320" as="sourcePoint"/>
                        <mxPoint x="670" y="320" as="targetPoint"/>
                    </mxGeometry>
                </mxCell>
                <mxCell id="-FKGB9jqLkH2_hyTQaql-105" value="1" style="resizable=0;html=1;align=right;verticalAlign=bottom;fillColor=#F2CC8F;strokeColor=#E07A5F;fontColor=#393C56;" parent="-FKGB9jqLkH2_hyTQaql-104" connectable="0" vertex="1">
                    <mxGeometry x="1" relative="1" as="geometry">
                        <mxPoint x="-2" as="offset"/>
                    </mxGeometry>
                </mxCell>
                <mxCell id="3" value="seller" style="text;strokeColor=none;fillColor=none;spacingLeft=4;spacingRight=4;overflow=hidden;rotatable=0;points=[[0,0.5],[1,0.5]];portConstraint=eastwest;fontSize=12;align=center;html=0;fontColor=#393C56;" vertex="1" parent="1">
                    <mxGeometry x="120" y="590" width="100" height="30" as="geometry"/>
                </mxCell>
                <mxCell id="4" value="user_address" style="text;strokeColor=none;fillColor=none;spacingLeft=4;spacingRight=4;overflow=hidden;rotatable=0;points=[[0,0.5],[1,0.5]];portConstraint=eastwest;fontSize=12;align=center;html=0;fontColor=#393C56;" vertex="1" parent="1">
                    <mxGeometry x="230" y="530" width="100" height="30" as="geometry"/>
                </mxCell>
                <mxCell id="7" style="edgeStyle=orthogonalEdgeStyle;orthogonalLoop=1;jettySize=auto;html=1;startFill=1;endArrow=oval;endFill=0;fontSize=11;entryX=0.497;entryY=0;entryDx=0;entryDy=0;entryPerimeter=0;labelBackgroundColor=#F4F1DE;strokeColor=#E07A5F;fontColor=#393C56;exitX=0.5;exitY=1;exitDx=0;exitDy=0;" edge="1" parent="1" source="-FKGB9jqLkH2_hyTQaql-52" target="3">
                    <mxGeometry relative="1" as="geometry">
                        <mxPoint x="169.71" y="610.54" as="targetPoint"/>
                        <mxPoint x="169.71" y="490" as="sourcePoint"/>
                    </mxGeometry>
                </mxCell>
                <mxCell id="8" style="edgeStyle=orthogonalEdgeStyle;orthogonalLoop=1;jettySize=auto;html=1;exitX=0.75;exitY=1;exitDx=0;exitDy=0;startFill=1;endArrow=oval;endFill=0;fontSize=11;labelBackgroundColor=#F4F1DE;strokeColor=#E07A5F;fontColor=#393C56;" edge="1" parent="1" source="-FKGB9jqLkH2_hyTQaql-52" target="4">
                    <mxGeometry relative="1" as="geometry">
                        <mxPoint x="220" y="580" as="targetPoint"/>
                        <mxPoint x="257" y="509.46" as="sourcePoint"/>
                    </mxGeometry>
                </mxCell>
            </root>
        </mxGraphModel>
    </diagram>
</mxfile>